<svg width="41" height="38" viewBox="0 0 41 38" fill="none" xmlns="http://www.w3.org/2000/svg">
<path d="M39.2069 18.856C39.2069 28.3356 30.8759 36.212 20.3535 36.212C9.83098 36.212 1.5 28.3356 1.5 18.856C1.5 9.37644 9.83098 1.5 20.3535 1.5C30.8759 1.5 39.2069 9.37644 39.2069 18.856Z" stroke="#292D32" stroke-width="3"/>
<path d="M24.7748 19.9545L25.3022 16.5678H22.0029V14.3709C22.0029 13.4444 22.4639 12.5403 23.9416 12.5403H25.4416V9.65694C25.4416 9.65694 24.0803 9.4281 22.7787 9.4281C20.0614 9.4281 18.2854 11.0501 18.2854 13.9865V16.5678H15.2649V19.9545H18.2854V28.1418C19.5171 28.3316 20.7712 28.3316 22.0029 28.1418V19.9545H24.7748Z" fill="#292D32"/>
</svg>
