<svg width="42" height="38" viewBox="0 0 42 38" fill="none" xmlns="http://www.w3.org/2000/svg">
<path d="M5.64917 30.006L5.76948 29.3523L5.36606 28.8241C3.20582 25.9955 1.9472 22.5585 1.9472 18.856C1.9472 9.37644 10.2782 1.5 20.8007 1.5C31.3231 1.5 39.6541 9.37644 39.6541 18.856C39.6541 28.3356 31.3231 36.212 20.8007 36.212C16.9694 36.212 13.4149 35.1611 10.4494 33.3636L9.88243 33.02L9.24665 33.2079C8.79753 33.3407 8.19688 33.5135 7.51549 33.7097C6.5069 34 5.3214 34.3412 4.18851 34.6786C4.3129 34.3133 4.43987 33.9396 4.56519 33.5676C5.03448 32.1747 5.52442 30.6839 5.64917 30.006Z" stroke="#292D32" stroke-width="3"/>
<path d="M30.9772 24.824C30.9772 25.1635 30.8956 25.5123 30.7224 25.8517C30.5491 26.1911 30.3249 26.5117 30.0293 26.8134C29.5299 27.3225 28.9795 27.6902 28.3578 27.9259C27.7463 28.1616 27.0838 28.2841 26.3704 28.2841C25.3308 28.2841 24.2199 28.0579 23.0478 27.5959C21.8757 27.1339 20.7036 26.5117 19.5417 25.7291C18.3697 24.9372 17.2587 24.0604 16.1988 23.0893C15.149 22.1088 14.2011 21.0811 13.3552 20.0063C12.5194 18.9315 11.8468 17.8567 11.3575 16.7914C10.8683 15.7166 10.6237 14.6889 10.6237 13.7084C10.6237 13.0673 10.746 12.4545 10.9906 11.8888C11.2352 11.3137 11.6225 10.7857 12.1627 10.3143C12.815 9.72037 13.5284 9.4281 14.2827 9.4281C14.568 9.4281 14.8534 9.48467 15.1082 9.5978C15.3732 9.71094 15.6076 9.88065 15.7911 10.1258L18.1556 13.2087C18.3391 13.4444 18.4716 13.6613 18.5633 13.8687C18.655 14.0667 18.706 14.2647 18.706 14.4438C18.706 14.6701 18.6346 14.8963 18.492 15.1132C18.3595 15.33 18.1658 15.5563 17.9212 15.7826L17.1466 16.5274C17.0345 16.6311 16.9835 16.7537 16.9835 16.9045C16.9835 16.9799 16.9937 17.0459 17.0141 17.1214C17.0447 17.1968 17.0753 17.2534 17.0956 17.3099C17.2791 17.621 17.5951 18.0264 18.0435 18.5167C18.5021 19.007 18.9914 19.5066 19.5213 20.0063C20.0717 20.506 20.6017 20.968 21.1419 21.3922C21.6719 21.8071 22.1101 22.0899 22.4566 22.2596C22.5076 22.2785 22.5688 22.3068 22.6401 22.335C22.7216 22.3633 22.8032 22.3728 22.8949 22.3728C23.0682 22.3728 23.2007 22.3162 23.3128 22.2125L24.0874 21.5054C24.3422 21.2697 24.5868 21.0906 24.8212 20.9774C25.0556 20.8454 25.29 20.7794 25.5448 20.7794C25.7385 20.7794 25.9423 20.8171 26.1665 20.902C26.3908 20.9868 26.6252 21.1094 26.88 21.2697L30.2535 23.4853C30.5185 23.655 30.702 23.853 30.8141 24.0887C30.916 24.3244 30.9772 24.5601 30.9772 24.824Z" fill="#292D32"/>
</svg>
